<mxfile host="app.diagrams.net" modified="2021-04-14T22:00:35.636Z" agent="5.0 (Windows NT 10.0; Win64; x64) AppleWebKit/537.36 (KHTML, like Gecko) Chrome/89.0.4389.114 Safari/537.36" etag="nOkLBQCKpwOioWgLR4in" version="14.6.0" type="github">
  <diagram name="Page-1" id="2cc2dc42-3aac-f2a9-1cec-7a8b7cbee084">
    <mxGraphModel dx="1422" dy="794" grid="1" gridSize="10" guides="1" tooltips="1" connect="1" arrows="1" fold="1" page="1" pageScale="1" pageWidth="1100" pageHeight="850" background="#ffffff" math="0" shadow="0">
      <root>
        <mxCell id="0" />
        <mxCell id="1" parent="0" />
        <mxCell id="y26SIKnd-ygPSyiVsQp2-2" value="" style="rounded=0;whiteSpace=wrap;html=1;" vertex="1" parent="1">
          <mxGeometry x="290" y="250" width="560" height="60" as="geometry" />
        </mxCell>
        <mxCell id="y26SIKnd-ygPSyiVsQp2-3" value="" style="rounded=0;whiteSpace=wrap;html=1;" vertex="1" parent="1">
          <mxGeometry x="290" y="320" width="560" height="60" as="geometry" />
        </mxCell>
        <mxCell id="y26SIKnd-ygPSyiVsQp2-4" value="&lt;font style=&quot;font-size: 20px&quot;&gt;password&lt;/font&gt;" style="text;html=1;strokeColor=none;fillColor=none;align=center;verticalAlign=middle;whiteSpace=wrap;rounded=0;" vertex="1" parent="1">
          <mxGeometry x="360" y="330" width="350" height="40" as="geometry" />
        </mxCell>
        <mxCell id="y26SIKnd-ygPSyiVsQp2-5" value="&lt;font style=&quot;font-size: 20px&quot;&gt;username&lt;/font&gt;" style="text;html=1;strokeColor=none;fillColor=none;align=center;verticalAlign=middle;whiteSpace=wrap;rounded=0;fontFamily=Times New Roman;" vertex="1" parent="1">
          <mxGeometry x="395" y="260" width="350" height="40" as="geometry" />
        </mxCell>
        <mxCell id="y26SIKnd-ygPSyiVsQp2-7" value="sign up" style="text;html=1;strokeColor=none;fillColor=none;align=center;verticalAlign=middle;whiteSpace=wrap;rounded=0;fontFamily=Times New Roman;" vertex="1" parent="1">
          <mxGeometry x="390" y="405" width="100" height="25" as="geometry" />
        </mxCell>
        <mxCell id="y26SIKnd-ygPSyiVsQp2-9" value="forgot password" style="text;html=1;strokeColor=none;fillColor=none;align=center;verticalAlign=middle;whiteSpace=wrap;rounded=0;fontFamily=Times New Roman;" vertex="1" parent="1">
          <mxGeometry x="560" y="407.5" width="140" height="20" as="geometry" />
        </mxCell>
        <mxCell id="y26SIKnd-ygPSyiVsQp2-11" value="" style="endArrow=classic;html=1;fontFamily=Times New Roman;" edge="1" parent="1">
          <mxGeometry width="50" height="50" relative="1" as="geometry">
            <mxPoint x="500" y="480" as="sourcePoint" />
            <mxPoint x="440" y="430" as="targetPoint" />
          </mxGeometry>
        </mxCell>
        <mxCell id="y26SIKnd-ygPSyiVsQp2-13" value="" style="endArrow=classic;html=1;fontFamily=Times New Roman;" edge="1" parent="1" target="y26SIKnd-ygPSyiVsQp2-14">
          <mxGeometry width="50" height="50" relative="1" as="geometry">
            <mxPoint x="550" y="480" as="sourcePoint" />
            <mxPoint x="610" y="430" as="targetPoint" />
          </mxGeometry>
        </mxCell>
        <mxCell id="y26SIKnd-ygPSyiVsQp2-14" value="Text" style="text;html=1;strokeColor=none;fillColor=none;align=center;verticalAlign=middle;whiteSpace=wrap;rounded=0;fontFamily=Times New Roman;" vertex="1" parent="1">
          <mxGeometry x="590" y="420" width="40" height="20" as="geometry" />
        </mxCell>
        <mxCell id="y26SIKnd-ygPSyiVsQp2-15" value="hyperlink" style="text;html=1;strokeColor=none;fillColor=none;align=center;verticalAlign=middle;whiteSpace=wrap;rounded=0;fontFamily=Times New Roman;" vertex="1" parent="1">
          <mxGeometry x="450" y="490" width="140" height="30" as="geometry" />
        </mxCell>
        <mxCell id="y26SIKnd-ygPSyiVsQp2-16" value="" style="rounded=1;whiteSpace=wrap;html=1;fontFamily=Times New Roman;" vertex="1" parent="1">
          <mxGeometry x="460" y="580" width="170" height="60" as="geometry" />
        </mxCell>
        <mxCell id="y26SIKnd-ygPSyiVsQp2-17" value="Sign in" style="text;html=1;strokeColor=none;fillColor=none;align=center;verticalAlign=middle;whiteSpace=wrap;rounded=0;fontFamily=Times New Roman;" vertex="1" parent="1">
          <mxGeometry x="510" y="590" width="70" height="30" as="geometry" />
        </mxCell>
        <mxCell id="y26SIKnd-ygPSyiVsQp2-19" value="" style="endArrow=classic;html=1;fontFamily=Times New Roman;" edge="1" parent="1">
          <mxGeometry width="50" height="50" relative="1" as="geometry">
            <mxPoint x="695" y="650" as="sourcePoint" />
            <mxPoint x="650" y="610" as="targetPoint" />
          </mxGeometry>
        </mxCell>
        <mxCell id="y26SIKnd-ygPSyiVsQp2-21" value="button" style="text;html=1;strokeColor=none;fillColor=none;align=center;verticalAlign=middle;whiteSpace=wrap;rounded=0;fontFamily=Times New Roman;" vertex="1" parent="1">
          <mxGeometry x="710" y="640" width="70" height="30" as="geometry" />
        </mxCell>
        <mxCell id="y26SIKnd-ygPSyiVsQp2-22" value="" style="rounded=0;whiteSpace=wrap;html=1;fontFamily=Times New Roman;" vertex="1" parent="1">
          <mxGeometry x="390" y="40" width="340" height="120" as="geometry" />
        </mxCell>
        <mxCell id="y26SIKnd-ygPSyiVsQp2-23" value="&lt;font style=&quot;font-size: 24px&quot;&gt;logo&lt;/font&gt;" style="text;html=1;strokeColor=none;fillColor=none;align=center;verticalAlign=middle;whiteSpace=wrap;rounded=0;fontFamily=Times New Roman;" vertex="1" parent="1">
          <mxGeometry x="490" y="55" width="120" height="90" as="geometry" />
        </mxCell>
        <mxCell id="y26SIKnd-ygPSyiVsQp2-24" value="" style="rounded=0;whiteSpace=wrap;html=1;fontFamily=Times New Roman;" vertex="1" parent="1">
          <mxGeometry x="1310" y="270" width="470" height="60" as="geometry" />
        </mxCell>
        <mxCell id="y26SIKnd-ygPSyiVsQp2-26" value="" style="rounded=0;whiteSpace=wrap;html=1;fontFamily=Times New Roman;" vertex="1" parent="1">
          <mxGeometry x="1310" y="367.5" width="470" height="60" as="geometry" />
        </mxCell>
        <mxCell id="y26SIKnd-ygPSyiVsQp2-27" value="" style="rounded=0;whiteSpace=wrap;html=1;fontFamily=Times New Roman;" vertex="1" parent="1">
          <mxGeometry x="1310" y="170" width="470" height="60" as="geometry" />
        </mxCell>
        <mxCell id="y26SIKnd-ygPSyiVsQp2-30" value="verify password" style="text;html=1;strokeColor=none;fillColor=none;align=center;verticalAlign=middle;whiteSpace=wrap;rounded=0;fontFamily=Times New Roman;" vertex="1" parent="1">
          <mxGeometry x="1420" y="387.5" width="140" height="20" as="geometry" />
        </mxCell>
        <mxCell id="y26SIKnd-ygPSyiVsQp2-31" value="password" style="text;html=1;strokeColor=none;fillColor=none;align=center;verticalAlign=middle;whiteSpace=wrap;rounded=0;fontFamily=Times New Roman;" vertex="1" parent="1">
          <mxGeometry x="1460" y="290" width="140" height="20" as="geometry" />
        </mxCell>
        <mxCell id="y26SIKnd-ygPSyiVsQp2-32" value="email" style="text;html=1;strokeColor=none;fillColor=none;align=center;verticalAlign=middle;whiteSpace=wrap;rounded=0;fontFamily=Times New Roman;" vertex="1" parent="1">
          <mxGeometry x="1430" y="190" width="140" height="20" as="geometry" />
        </mxCell>
        <mxCell id="y26SIKnd-ygPSyiVsQp2-33" value="" style="rounded=0;whiteSpace=wrap;html=1;fontFamily=Times New Roman;" vertex="1" parent="1">
          <mxGeometry x="1310" y="80" width="470" height="60" as="geometry" />
        </mxCell>
        <mxCell id="y26SIKnd-ygPSyiVsQp2-34" value="username" style="text;html=1;strokeColor=none;fillColor=none;align=center;verticalAlign=middle;whiteSpace=wrap;rounded=0;fontFamily=Times New Roman;" vertex="1" parent="1">
          <mxGeometry x="1430" y="100" width="140" height="20" as="geometry" />
        </mxCell>
        <mxCell id="y26SIKnd-ygPSyiVsQp2-35" value="" style="rounded=1;whiteSpace=wrap;html=1;fontFamily=Times New Roman;" vertex="1" parent="1">
          <mxGeometry x="1570" y="540" width="120" height="60" as="geometry" />
        </mxCell>
        <mxCell id="y26SIKnd-ygPSyiVsQp2-36" value="submit" style="text;html=1;strokeColor=none;fillColor=none;align=center;verticalAlign=middle;whiteSpace=wrap;rounded=0;fontFamily=Times New Roman;" vertex="1" parent="1">
          <mxGeometry x="1610" y="550" width="40" height="20" as="geometry" />
        </mxCell>
        <mxCell id="y26SIKnd-ygPSyiVsQp2-45" value="" style="rounded=0;whiteSpace=wrap;html=1;fontFamily=Times New Roman;" vertex="1" parent="1">
          <mxGeometry x="2330" y="160" width="210" height="40" as="geometry" />
        </mxCell>
        <mxCell id="y26SIKnd-ygPSyiVsQp2-46" value="" style="rounded=0;whiteSpace=wrap;html=1;fontFamily=Times New Roman;" vertex="1" parent="1">
          <mxGeometry x="2330" y="250" width="210" height="40" as="geometry" />
        </mxCell>
        <mxCell id="y26SIKnd-ygPSyiVsQp2-47" value="" style="rounded=0;whiteSpace=wrap;html=1;fontFamily=Times New Roman;" vertex="1" parent="1">
          <mxGeometry x="2330" y="347.5" width="210" height="40" as="geometry" />
        </mxCell>
        <mxCell id="y26SIKnd-ygPSyiVsQp2-48" value="" style="whiteSpace=wrap;html=1;aspect=fixed;fontFamily=Times New Roman;" vertex="1" parent="1">
          <mxGeometry x="2150" y="530" width="80" height="80" as="geometry" />
        </mxCell>
      </root>
    </mxGraphModel>
  </diagram>
</mxfile>
